<svg id="modem-router-flat" xmlns="http://www.w3.org/2000/svg" viewBox="0 0 90 90"><title>modem-router</title><circle id="label" cx="45" cy="45" r="45" fill="#3bafda"/><g id="shadow"><path d="M84.36,66.08l-.18-.18L84,65.72l-.18-.18-.18-.18-.18-.18L83.28,65l-.18-.18-.18-.18-.18-.18-.18-.18-.18-.18-.18-.18L82,63.75l-.18-.18-.18-.18-.18-.18L81.31,63l-.18-.18L81,62.67l-.18-.18-.18-.18-.18-.18L80.23,62l-.18-.18-.18-.18-.18-.18-.18-.18-.18-.18-.18-.18L79,60.7l-.18-.18-.18-.18-.18-.18L78.26,60l-.18-.18-.18-.18-.18-.18-.18-.18-.18-.18-.18-.18L77,58.72l-.18-.18-.18-.18-.18-.18L76.29,58l-.18-.18-.18-.18-.18-.18-.18-.18-.18-.18-.18-.18L75,56.75l-.18-.18-.18-.18-.18-.18L74.32,56l-.18-.18L74,55.68l-.18-.18-.18-.18-.18-.18L73.24,55l-.18-.18-.18-.18-.18-.18-.18-.18-.18-.18-.18-.18L72,53.7l-.18-.18-.18-.18-.18-.18L71.27,53l-.18-.18-.18-.18-.18-.18-.18-.18-.18-.18-.18-.18L70,51.73l-.18-.18-.18-.18-.18-.18L69.3,51l-.18-.18-.18-.18-.18-.18-.18-.18-.18-.18-.18-.18L68,49.76l-.18-.18-.18-.18-.18-.18L67.32,49l-.18-.18L67,48.69l-.18-.18-.18-.18-.18-.18L66.25,48l-.18-.18-.18-.18-.18-.18-.18-.18-.18-.18-.18-.18L65,46.71l-.18-.18-.18-.18-.18-.18L64.28,46l-.18-.18-.18-.18-.18-.18-.18-.18-.18-.18-.18-.18L63,44.74l-.18-.18-.18-.18-.18-.18L62.3,44l-.18-.18-.18-.18-.18-.18-.18-.18-.18-.18-.18-.18L61,42.77l-.18-.18-.18-.18-.18-.18-.18-.18-.18-.18L60,41.69l-.18-.18-.18-.18-.18-.18L59.26,41l-.18-.18-.18-.18-.18-.18-.18-.18-.18-.18-.18-.18L58,39.72l-.18-.18-.18-.18-.18-.18L57.29,39l-.18-.18-.18-.18-.18-.18-.18-.18-.18-.18-.18-.18L56,37.75l-.18-.18-.18-.18-.18-.18L55.31,37l-.18-.18L55,36.67l-.18-.18-.18-.18-.18-.18L54.24,36l-.18-.18-.18-.18-.18-.18-.18-.18-.18-.18-.18-.18L53,34.7l-.18-.18-.18-.18-.18-.18L52.26,34l-.18-.18-.18-.18-.18-.18-.18-.18-.18-.18-.18-.18L51,32.73l-.18-.18-.18-.18-.18-.18L50.29,32l-.18-.18-.18-.18-.18-.18-.18-.18-.18-.18-.18-.18L49,30.76l-.18-.18-.18-.18-.18-.18L48.32,30l-.18-.18L48,29.68l-.18-.18-.18-.18-.18-.18L47.25,29l-.18-.18-.18-.18-.18-.18-.18-.18-.18-.18-.18-.18L46,27.71l-.18-.18-.18-.18-.18-.18L45.27,27l-.18-.18-.18-.18-.18-.18-.18-.18-.18-.18-.18-.18L44,25.74l-.18-.18-.18-.18-.18-.18a14,14,0,0,0-10-4.2v2.15h.18v.17h.18v.17H34v.17h.18v.17h.18v.17h.18v.17h.18v.17h.18v.17h.18v.17h.18v.17h.18v.17h.18v.17h.18v.17H36v.16a9.64,9.64,0,0,0-2.51-.34v2.15h.18v.17h.18v.17H34V28h.18v.17h.18v.17h.18v.17h.18v.17h.18v.17h.18v.17h.18v.17h.18v.17h.18v.17h.18v.17H36V30h.18v.17h.18v.17h.18v.17h.18v.17h.18v.17a5.33,5.33,0,0,0-3.41-1.25v2.15l.18,0v.16l.18,0v.16l.18,0v.16l.18,0v.16l.18,0v.16l.18,0v.16l.18,0V33l.18,0v.16l.18,0v.16l.18,0v.16l.18,0v.16l.18,0v.16l.18,0v.16l.18,0v.16l.18,0v.16l.18,0v.16l.18,0v.16l.17,0s0,.09,0,.13v0h.17s0,.09,0,.13v0h.17s0,.09,0,.13v0h.17s0,.09,0,.13v0h.17s0,.09,0,.13v0h.17s0,.09,0,.13v0h.17s0,.09,0,.13v0H38s0,.09,0,.13v0h.17s0,.09,0,.13v0h.17s0,.09,0,.13v0h.17s0,.09,0,.13v0h.17s0,.09,0,.13v0h.17s0,.09,0,.13v0H39s0,.09,0,.13v0h.17s0,.09,0,.13v0h.17s0,.09,0,.13v0h.17s0,.09,0,.13v0h.17s0,.09,0,.13v0h.17s0,.09,0,.13v0h.17s0,.09,0,.13v0h.17s0,.09,0,.13v0h.17s0,.09,0,.13v0h.17s0,.09,0,.13v0h.17s0,.09,0,.13v0H41s0,.09,0,.13v0h.17s0,.09,0,.13v0h.17s0,.09,0,.13v0h.17s0,.09,0,.13v0h.17s0,.09,0,.13v0h.17s0,.09,0,.13v0h.17s0,.09,0,.13v0h.17s0,.09,0,.13v0h.17s0,.09,0,.13v0h.17s0,.09,0,.13v0h.17s0,.09,0,.13v0H43s0,.09,0,.13v0h.17s0,.09,0,.13v0h.17s0,.09,0,.13v0h.17s0,.09,0,.13v0h.17s0,.09,0,.13v0h.17s0,.09,0,.13v0h.17s0,.09,0,.13v0h.17s0,.09,0,.13v0h.17s0,.09,0,.13v0h.17s0,.09,0,.13v0h.17s0,.09,0,.13v0H45s0,.09,0,.13v0h.17s0,.09,0,.13v0h.17s0,.09,0,.13v0h.17s0,.09,0,.13v0h.17s0,.09,0,.13v0h.17s0,.09,0,.13v0H46s0,.09,0,.13v0h.17s0,.09,0,.13v0h.17s0,.09,0,.13v0h.17s0,.09,0,.13v0h.17s0,.09,0,.13v0h.17s0,.09,0,.13v0h.17s0,.09,0,.13v0h.17s0,.09,0,.13v0h.17s0,.09,0,.13v0h.17s0,.09,0,.13v0h.17s0,.09,0,.13v0H48s0,.09,0,.13v0h.17s0,.09,0,.13v0h.17s0,.09,0,.13v0h.17s0,.09,0,.13v0h.17s0,.09,0,.13v0h.17s0,.09,0,.13v0h.17s0,.09,0,.13v0h.17s0,.09,0,.13v0h.17s0,.09,0,.13v0h.17s0,.09,0,.13v0h.17s0,.09,0,.13v0H50s0,.09,0,.13v0h.17s0,.09,0,.13v0h.17s0,.09,0,.13v0h.17s0,.09,0,.13v0h.17s0,.09,0,.13v0h.17s0,.09,0,.13v0h.17s0,.09,0,.13v0h.17s0,.09,0,.13v0h.17s0,.09,0,.13v0h.17s0,.09,0,.13v0h.17s0,.09,0,.13v0H52s0,.09,0,.13v0h.17s0,.09,0,.13v0h.17s0,.09,0,.13v0h.17s0,.09,0,.13v0h.17s0,.09,0,.13v0h.17s0,.09,0,.13v0H53s0,.09,0,.13v0h.17s0,.09,0,.13v0h.17s0,.09,0,.13v0h.17s0,.09,0,.13v0h.17s0,.09,0,.13h-2l-.11-.1-.18-.18-.18-.18-.18-.18L51,51.18,50.79,51l-.18-.18-.18-.18-.18-.18-.18-.18-.18-.18-.18-.18-.18-.18-.18-.18-.18-.18L49,49.21,48.81,49l-.18-.18-.18-.18-.18-.18-.18-.18-.18-.18L47.74,48l-.18-.18-.18-.18-.18-.18L47,47.24l-.18-.18-.18-.18-.18-.18-.18-.18-.18-.18-.18-.18L45.77,46l-.18-.18-.18-.18-.18-.18L45,45.27l-.18-.18-.18-.18-.18-.18-.18-.18-.18-.18L44,44.19,43.79,44l-.18-.18-.18-.18-.18-.18-.18-.18-.18-.18-.18-.18-.18-.18-.18-.18-.18-.18L42,42.22,41.82,42l-.18-.18-.18-.18-.18-.18-.18-.18-.18-.18L40.75,41l-.18-.18-.18-.18-.18-.18L40,40.25l-.18-.18-.18-.18-.18-.18-.18-.18-.18-.18L39,39.17,38.77,39l-.18-.18-.18-.18-.18-.18-.18-.18-.18-.18-.18-.18-.18-.18-.18-.18-.18-.18L37,37.2,36.8,37l-.18-.18-.18-.18-.18-.18-.18-.18-.18-.18-.18-.18-.18-.18-.18-.18-.18-.18L35,35.23,34.83,35l-.18-.18-.18-.18A2,2,0,0,0,33,34a2.05,2.05,0,0,0-2,2.11V52H23.48A2.56,2.56,0,0,0,21,54.63v8.75a2.67,2.67,0,0,0,.85,2l.18.18.18.18.18.18.18.18.18.18.18.18.18.18.18.18.18.18.18.18.18.18.18.18.18.18.18.18.18.18.18.18.18.18.18.18.18.18.18.18.18.18.18.18.18.18.18.18.18.18.18.18.18.18.18.18.18.18.18.18.18.18.18.18.18.18.18.18.18.18.18.18.18.18.18.18.18.18.18.18.18.18.18.18.18.18.18.18.18.18.18.18.18.18.18.18.18.18.18.18.18.18.18.18.18.18.18.18.18.18.18.18.18.18.18.18.18.18.18.18.18.18.18.18.18.18.18.18.18.18.18.18.18.18.18.18.18.18.18.18.18.18.18.18.18.18.18.18.18.18.18.18.18.18.18.18.18.18.18.18.18.18.18.18.18.18.18.18.18.18.18.18.18.18.18.18.18.18.18.18.18.18.18.18.18.18.18.18.18.18.18.18.18.18.18.18.18.18.18.18.18.18.18.18.18.18.18.18.18.18.18.18.18.18.18.18.18.18.18.18.18.18.18.18.18.18.18.18.18.18.18.18.18.18.18.18.18.18.18.18.18.18.18.18.18.18.18.18.18.18.18.18.18.18.18.18.18.18.18.18.18.18.18.18.18.18.18.18.18.18.18.18.18.18.06.06A45,45,0,0,0,84.62,66.34l-.09-.09ZM36.19,25.7l-.11,0h.11Zm.9,5.32-.18-.14h.18Zm.18.15L37.13,31h.13Zm.18.18-.06,0-.05-.06h.11Zm.18.18-.06,0-.05-.06h.11Zm.18.18-.06,0-.05-.06h.11Zm.18.18-.06,0-.05-.06H38Zm.18.18-.06,0-.05-.06h.11Zm.18.18-.06,0-.05-.06h.11Zm.18.18-.06,0-.05-.06h.11Zm.18.18-.06,0-.05-.06h.11Zm.18.18-.06,0-.05-.06h.11Zm.18.18-.06,0-.05-.06h.11Zm.18.18-.06,0L39.13,33h.11Zm.18.18-.06,0-.05-.06h.11Zm.18.18-.06,0-.05-.06h.11Zm.18.18-.06,0-.05-.06h.11Zm.18.18-.06,0-.05-.06H40Zm.18.18-.06,0L40,33.92h.11Zm.18.18-.06,0-.05-.06h.11Zm.18.18-.06,0-.05-.06h.11Zm.18.18-.06,0-.05-.06h.11Zm.18.18-.06,0-.05-.06h.11Zm.18.18-.06,0-.05-.06H41Zm.18.18-.06,0,0-.06h.1Zm.18.18-.06,0,0-.06h.1Zm.18.18-.06,0,0-.06h.1Zm.18.18-.06,0,0-.06h.1Zm.18.18-.06,0,0-.06h.1Zm.18.18L42,36l0-.06h.1Zm.18.18-.06,0,0-.06h.1Zm.18.18-.06,0,0-.06h.1Zm.18.18-.06,0,0-.06h.1Zm.18.18-.06,0,0-.06h.1Zm.18.18-.06,0,0-.06H43Zm.18.18-.06,0,0-.06h.1Zm.18.18-.06,0,0-.06h.1Zm.18.18-.06,0,0-.06h.1Zm.18.18-.06,0,0-.06h.1Zm.18.18-.06,0,0-.06h.1Zm.18.18-.06,0,0-.06h.1Zm.18.18-.06,0,0-.06h.1Zm.18.18-.06,0,0-.06h.1Zm.18.18-.06,0,0-.06h.1Zm.18.18-.06,0,0-.06h.1Zm.18.18-.06,0,0-.06H45Zm.18.18-.06,0,0-.06h.1Zm.18.18-.06,0,0-.06h.1Zm.18.18-.06,0,0-.06h.1Zm.18.18-.06,0,0-.06h.1Zm.18.18-.06,0,0-.06h.1Zm.18.18-.06,0,0-.06H46Zm.18.18-.06,0,0-.06h.1Zm.18.18-.06,0,0-.06h.1Zm.18.18-.06,0,0-.06h.1Zm.18.18-.06,0,0-.06h.1Zm.18.18-.06,0,0-.06h.1Zm.18.18-.06,0,0-.06h.1Zm.18.18-.06,0,0-.06h.1Zm.18.18-.06,0,0-.06h.1Zm.18.18-.06,0,0-.06h.1Zm.18.18-.06,0,0-.06h.1Zm.18.18-.06,0,0-.06H48Zm.18.18-.06,0,0-.06h.1Zm.18.18-.06,0,0-.06h.1Zm.18.18-.06,0,0-.06h.1Zm.18.18-.06,0,0-.06h.1Zm.18.18-.06,0,0-.06h.1Zm.18.18-.06,0,0-.06h.1Zm.18.18-.06,0,0-.06h.1Zm.18.18-.06,0,0-.06h.1Zm.18.18-.06,0,0-.06h.1Zm.18.18-.06,0,0-.06h.1Zm.18.18-.06,0,0-.06H50Zm.18.18-.06,0,0-.06h.1Zm.18.18-.06,0,0-.06h.1Zm.18.18-.06,0,0-.06h.1Zm.18.18-.06,0,0-.06h.1Zm.18.18-.06,0,0-.06h.1Zm.18.18-.06,0,0-.06h.1Zm.18.18-.06,0,0-.06h.1Zm.18.18-.06,0,0-.06h.1Zm.18.18-.06,0,0-.06h.1Zm.18.18-.06,0,0-.06h.1Zm.18.18-.06,0,0-.06H52Zm.18.18-.06,0,0-.06h.1Zm.18.18-.06,0,0-.06h.1Zm.18.18-.06,0,0-.06h.1Zm.18.18-.06,0,0-.06h.1Zm.18.18-.06,0,0-.06h.1Zm.18.18-.06,0,0-.06H53Zm.18.18-.06,0,0-.06h.1Zm.18.18-.06,0,0-.06h.1Zm.18.18-.06,0,0-.06h.1Zm.18.18-.06,0,0-.06h.1Zm.18.18-.06,0,0-.06h.1Zm.18.18-.06,0,0-.06h.1Zm.18.18-.06,0,0-.06h.1Zm.18.18-.06,0,0-.06h.1Zm.18.18-.06,0,0-.06h.1Zm.18.18-.06,0,0-.06h.1Zm.18.18-.06,0,0-.06H55Zm.18.18-.06,0,0-.06h.1Zm.18.18-.06,0,0-.06h.1Zm.18.18-.06,0,0-.06h.1Zm.18.18-.06,0,0-.06h.1Zm.18.18-.06,0,0-.06h.1Zm.18.18-.06,0,0-.06h.1Zm.18.18-.06,0,0-.06h.1Zm.18.18-.06,0,0-.06h.1Zm.18.18-.06,0,0-.06h.1Zm.18.18-.06,0,0-.06h.1Zm.18.18-.06,0,0-.06H57Zm.18.18-.06,0,0-.06h.1Zm.18.18-.06,0,0-.06h.1Zm.18.18-.06,0,0-.06h.1Zm.18.18-.06,0,0-.06h.1Zm.18.18-.06,0,0-.06h.1Zm.18.18-.06,0,0-.06h.1Z" fill="#36a2c9"/></g><g id="modem-router"><rect x="58" y="65" width="6" height="4" fill="#333"/><rect x="26" y="65" width="6" height="4" fill="#333"/><path d="M35,54V36.11a2,2,0,1,0-4,0V54" fill="#333"/><path d="M23.48,52h43A2.56,2.56,0,0,1,69,54.63v8.75A2.56,2.56,0,0,1,66.52,66h-43A2.56,2.56,0,0,1,21,63.38V54.63A2.56,2.56,0,0,1,23.48,52Z" fill="#434a54"/><rect x="25.5" y="57.5" width="3" height="3" fill="#fc6e51"/><rect x="31.5" y="57.5" width="3" height="3" fill="#ffca28"/><rect x="37.5" y="57.5" width="3" height="3" fill="#3bafda"/><rect x="43.5" y="57.5" width="3" height="3" fill="#acaf48"/><rect x="55" y="58" width="2" height="2" fill="#5f656e"/><rect x="59" y="58" width="2" height="2" fill="#5f656e"/><rect x="63" y="58" width="2" height="2" fill="#5f656e"/><path d="M38.88,35H36.73a3.23,3.23,0,0,0-3.23-3.23V29.62A5.39,5.39,0,0,1,38.88,35Z" fill="#fff"/><path d="M43.19,35H41a7.55,7.55,0,0,0-7.54-7.54V25.31A9.7,9.7,0,0,1,43.19,35Z" fill="#fff"/><path d="M47.5,35H45.35A11.86,11.86,0,0,0,33.5,23.15V21A14,14,0,0,1,47.5,35Z" fill="#80deea"/></g></svg>